<svg width="15" height="16" viewBox="0 0 15 16" fill="none" xmlns="http://www.w3.org/2000/svg">
<path d="M7.50049 2.29565C4.14043 2.29565 1.40674 5.02058 1.40674 8.36987C1.40674 11.7192 4.14043 14.4441 7.50049 14.4441C10.8605 14.4441 13.5942 11.7192 13.5942 8.36987C13.5942 5.02058 10.8605 2.29565 7.50049 2.29565ZM10.6719 6.33413L6.73437 11.0066C6.69118 11.0579 6.63744 11.0993 6.57678 11.1281C6.51613 11.1569 6.44998 11.1723 6.38281 11.1734H6.3749C6.3092 11.1733 6.24424 11.1595 6.18423 11.1329C6.12422 11.1062 6.0705 11.0673 6.02656 11.0186L4.33906 9.14959C4.29621 9.10428 4.26287 9.05089 4.24101 8.99255C4.21915 8.93422 4.20921 8.87212 4.21177 8.8099C4.21433 8.74768 4.22934 8.68659 4.25593 8.63024C4.28251 8.57389 4.32013 8.5234 4.36656 8.48174C4.413 8.44009 4.46732 8.4081 4.52634 8.38767C4.58535 8.36724 4.64787 8.35878 4.71021 8.36277C4.77256 8.36677 4.83347 8.38315 4.88937 8.41095C4.94528 8.43875 4.99504 8.4774 5.03574 8.52465L6.3626 9.99414L9.9541 5.73314C10.0347 5.64029 10.1486 5.58278 10.2714 5.57303C10.3942 5.56328 10.5158 5.60207 10.6101 5.68103C10.7044 5.75998 10.7638 5.87275 10.7753 5.99496C10.7869 6.11718 10.7497 6.23901 10.6719 6.33413Z" fill="#68D391"/>
</svg>
