<svg width="14" height="11" viewBox="0 0 14 11" fill="none" xmlns="http://www.w3.org/2000/svg">
<path fill-rule="evenodd" clip-rule="evenodd" d="M5.86909 10.0776H7.32014C7.71918 10.0776 8.04566 9.69972 8.04566 9.23784C8.04566 8.77597 7.71918 8.39807 7.32014 8.39807H5.86909C5.47005 8.39807 5.14356 8.77597 5.14356 9.23784C5.14356 9.69972 5.47005 10.0776 5.86909 10.0776ZM0.0648804 0.839772C0.0648804 1.30165 0.391367 1.67954 0.790406 1.67954H12.3988C12.7979 1.67954 13.1243 1.30165 13.1243 0.839772C13.1243 0.377897 12.7979 0 12.3988 0H0.790406C0.391367 0 0.0648804 0.377897 0.0648804 0.839772ZM2.96709 5.87864H10.2224C10.6214 5.87864 10.9479 5.50074 10.9479 5.03887C10.9479 4.57699 10.6214 4.1991 10.2224 4.1991H2.96709C2.56806 4.1991 2.24157 4.57699 2.24157 5.03887C2.24157 5.50074 2.56806 5.87864 2.96709 5.87864Z" fill="#A0AEC0"/>
</svg>
