<svg width="14" height="14" viewBox="0 0 14 14" fill="none" xmlns="http://www.w3.org/2000/svg">
<path d="M6.55697 1.61739C6.39293 1.78148 6.30078 2.004 6.30078 2.23602C6.30078 2.46804 6.39293 2.69056 6.55697 2.85464L10.8882 7.18589L6.55697 11.5171C6.39758 11.6822 6.30939 11.9032 6.31138 12.1326C6.31337 12.362 6.4054 12.5815 6.56763 12.7437C6.72986 12.906 6.94932 12.998 7.17874 13C7.40817 13.002 7.62919 12.9138 7.79422 12.7544L12.7441 7.80452C12.9081 7.64043 13.0003 7.41791 13.0003 7.18589C13.0003 6.95388 12.9081 6.73136 12.7441 6.56727L7.79422 1.61739C7.63013 1.45336 7.40761 1.36121 7.17559 1.36121C6.94358 1.36121 6.72106 1.45336 6.55697 1.61739Z" fill="white"/>
<path d="M1.55697 1.61739C1.39293 1.78148 1.30078 2.004 1.30078 2.23602C1.30078 2.46804 1.39293 2.69056 1.55697 2.85464L5.88822 7.18589L1.55697 11.5171C1.39758 11.6822 1.30939 11.9032 1.31138 12.1326C1.31337 12.362 1.4054 12.5815 1.56763 12.7437C1.72986 12.906 1.94932 12.998 2.17874 13C2.40817 13.002 2.62919 12.9138 2.79422 12.7544L7.74409 7.80452C7.90813 7.64043 8.00028 7.41791 8.00028 7.18589C8.00028 6.95388 7.90813 6.73136 7.74409 6.56727L2.79422 1.61739C2.63013 1.45336 2.40761 1.36121 2.17559 1.36121C1.94358 1.36121 1.72106 1.45336 1.55697 1.61739Z" fill="white"/>
</svg>
