<svg width="107" height="32" viewBox="0 0 107 32" fill="none" xmlns="http://www.w3.org/2000/svg">
<g opacity="0.7">
<path d="M0 2.5C0 1.39543 0.89543 0.5 2 0.5H101C104.314 0.5 107 3.18629 107 6.5V25.5C107 28.8137 104.314 31.5 101 31.5H2C0.895432 31.5 0 30.6046 0 29.5V2.5Z" fill="#4D44B5"/>
<path d="M19.4941 14.6172C20.0273 14.6172 20.4421 14.5431 20.7383 14.395C21.2038 14.1623 21.4365 13.7433 21.4365 13.1382C21.4365 12.5288 21.189 12.1183 20.6938 11.9067C20.4146 11.7882 19.9998 11.729 19.4497 11.729H17.1963V14.6172H19.4941ZM19.9194 18.9209C20.6938 18.9209 21.2461 18.6966 21.5762 18.248C21.7835 17.9645 21.8872 17.6217 21.8872 17.2197C21.8872 16.5426 21.5846 16.0814 20.9795 15.8359C20.6579 15.7048 20.2326 15.6392 19.7036 15.6392H17.1963V18.9209H19.9194ZM15.9585 10.6753H19.9639C21.0557 10.6753 21.8322 11.0011 22.2935 11.6528C22.5643 12.0379 22.6997 12.4823 22.6997 12.9858C22.6997 13.5741 22.5326 14.0565 22.1982 14.4331C22.0247 14.632 21.7751 14.814 21.4492 14.979C21.9274 15.161 22.285 15.3662 22.522 15.5947C22.9409 16.001 23.1504 16.5617 23.1504 17.2769C23.1504 17.8778 22.9621 18.4215 22.5854 18.9082C22.0226 19.6361 21.1276 20 19.9004 20H15.9585V10.6753ZM24.7355 13.2017H25.821V14.376C25.9098 14.1475 26.1278 13.8703 26.4748 13.5444C26.8218 13.2144 27.2217 13.0493 27.6745 13.0493C27.6957 13.0493 27.7316 13.0514 27.7824 13.0557C27.8332 13.0599 27.9199 13.0684 28.0427 13.0811V14.2871C27.9749 14.2744 27.9115 14.266 27.8522 14.2617C27.7972 14.2575 27.7359 14.2554 27.6681 14.2554C27.0926 14.2554 26.6504 14.4416 26.3415 14.814C26.0326 15.1821 25.8781 15.6074 25.8781 16.0898V20H24.7355V13.2017ZM31.9256 19.2637C32.6831 19.2637 33.2015 18.978 33.4808 18.4067C33.7643 17.8312 33.9061 17.1922 33.9061 16.4897C33.9061 15.855 33.8046 15.3387 33.6014 14.9409C33.2798 14.3146 32.7254 14.0015 31.9383 14.0015C31.2401 14.0015 30.7323 14.2681 30.4149 14.8013C30.0975 15.3345 29.9388 15.9777 29.9388 16.731C29.9388 17.4546 30.0975 18.0576 30.4149 18.54C30.7323 19.0225 31.2359 19.2637 31.9256 19.2637ZM31.9701 13.0049C32.8461 13.0049 33.5866 13.2969 34.1918 13.8809C34.7969 14.4648 35.0995 15.3239 35.0995 16.458C35.0995 17.554 34.8329 18.4596 34.2997 19.1748C33.7665 19.89 32.9392 20.2476 31.8177 20.2476C30.8825 20.2476 30.1398 19.9323 29.5897 19.3018C29.0396 18.667 28.7645 17.8164 28.7645 16.75C28.7645 15.6074 29.0544 14.6976 29.6341 14.0205C30.2139 13.3434 30.9925 13.0049 31.9701 13.0049ZM37.1861 13.2017L38.4937 18.5591L39.8204 13.2017H41.1026L42.4356 18.5273L43.8257 13.2017H44.9683L42.9942 20H41.8072L40.4234 14.7378L39.084 20H37.897L35.9356 13.2017H37.1861ZM46.9279 17.8672C46.9618 18.248 47.057 18.54 47.2136 18.7432C47.5014 19.1113 48.0007 19.2954 48.7116 19.2954C49.1348 19.2954 49.5072 19.2044 49.8288 19.0225C50.1504 18.8363 50.3113 18.5506 50.3113 18.1655C50.3113 17.8735 50.1822 17.6514 49.924 17.499C49.759 17.4059 49.4332 17.298 48.9465 17.1753L48.0388 16.9468C47.459 16.8029 47.0316 16.6421 46.7566 16.4644C46.2657 16.1554 46.0202 15.728 46.0202 15.1821C46.0202 14.5389 46.2509 14.0184 46.7121 13.6206C47.1776 13.2228 47.8018 13.0239 48.5847 13.0239C49.6088 13.0239 50.3472 13.3244 50.8 13.9253C51.0835 14.3062 51.2211 14.7166 51.2126 15.1567H50.1335C50.1124 14.8986 50.0214 14.6637 49.8606 14.4521C49.5982 14.1517 49.1433 14.0015 48.4958 14.0015C48.0642 14.0015 47.7362 14.084 47.5119 14.249C47.2919 14.4141 47.1819 14.632 47.1819 14.9028C47.1819 15.1991 47.3279 15.436 47.6198 15.6138C47.7891 15.7196 48.0388 15.8127 48.3689 15.8931L49.1242 16.0771C49.9452 16.276 50.4953 16.4686 50.7746 16.6548C51.219 16.9468 51.4411 17.4059 51.4411 18.0322C51.4411 18.6374 51.2105 19.16 50.7492 19.6001C50.2922 20.0402 49.594 20.2603 48.6545 20.2603C47.6431 20.2603 46.9258 20.0317 46.5027 19.5747C46.0837 19.1134 45.8594 18.5443 45.8298 17.8672H46.9279ZM55.7748 13.0493C56.2572 13.0493 56.7248 13.1636 57.1776 13.3921C57.6304 13.6164 57.9753 13.9084 58.2123 14.2681C58.4408 14.6108 58.5932 15.0107 58.6693 15.4678C58.737 15.7809 58.7709 16.2803 58.7709 16.9658H53.788C53.8091 17.6556 53.9721 18.21 54.2768 18.6289C54.5814 19.0436 55.0533 19.251 55.6923 19.251C56.289 19.251 56.765 19.0542 57.1205 18.6606C57.3236 18.4321 57.4675 18.1676 57.5521 17.8672H58.6757C58.6461 18.1169 58.5466 18.3962 58.3773 18.7051C58.2123 19.0098 58.0261 19.2594 57.8187 19.4541C57.4717 19.7926 57.0422 20.0212 56.5302 20.1396C56.2551 20.2074 55.9441 20.2412 55.5971 20.2412C54.7507 20.2412 54.0334 19.9344 53.4452 19.3208C52.857 18.703 52.5629 17.8397 52.5629 16.731C52.5629 15.6392 52.8591 14.7526 53.4516 14.0713C54.044 13.39 54.8184 13.0493 55.7748 13.0493ZM57.5966 16.0581C57.55 15.563 57.4421 15.1673 57.2729 14.8711C56.9597 14.321 56.4371 14.0459 55.705 14.0459C55.1802 14.0459 54.7401 14.2363 54.3847 14.6172C54.0292 14.9938 53.8409 15.4741 53.8197 16.0581H57.5966ZM64.4612 10.6753H70.9295V11.8179H65.7244V14.6489H70.301V15.7598H65.7244V20H64.4612V10.6753ZM72.3305 13.2334H73.4921V20H72.3305V13.2334ZM72.3305 10.6753H73.4921V11.9702H72.3305V10.6753ZM75.4518 10.6753H76.5944V20H75.4518V10.6753ZM81.3406 13.0493C81.823 13.0493 82.2907 13.1636 82.7435 13.3921C83.1963 13.6164 83.5411 13.9084 83.7781 14.2681C84.0066 14.6108 84.159 15.0107 84.2352 15.4678C84.3029 15.7809 84.3367 16.2803 84.3367 16.9658H79.3538C79.375 17.6556 79.5379 18.21 79.8426 18.6289C80.1473 19.0436 80.6191 19.251 81.2581 19.251C81.8548 19.251 82.3309 19.0542 82.6863 18.6606C82.8895 18.4321 83.0333 18.1676 83.118 17.8672H84.2415C84.2119 18.1169 84.1124 18.3962 83.9432 18.7051C83.7781 19.0098 83.5919 19.2594 83.3846 19.4541C83.0376 19.7926 82.608 20.0212 82.096 20.1396C81.8209 20.2074 81.5099 20.2412 81.1629 20.2412C80.3165 20.2412 79.5993 19.9344 79.011 19.3208C78.4228 18.703 78.1287 17.8397 78.1287 16.731C78.1287 15.6392 78.4249 14.7526 79.0174 14.0713C79.6098 13.39 80.3842 13.0493 81.3406 13.0493ZM83.1624 16.0581C83.1159 15.563 83.0079 15.1673 82.8387 14.8711C82.5255 14.321 82.0029 14.0459 81.2708 14.0459C80.7461 14.0459 80.306 14.2363 79.9505 14.6172C79.595 14.9938 79.4067 15.4741 79.3855 16.0581H83.1624ZM86.6201 17.8672C86.6539 18.248 86.7492 18.54 86.9057 18.7432C87.1935 19.1113 87.6928 19.2954 88.4038 19.2954C88.827 19.2954 89.1994 19.2044 89.521 19.0225C89.8426 18.8363 90.0034 18.5506 90.0034 18.1655C90.0034 17.8735 89.8743 17.6514 89.6162 17.499C89.4511 17.4059 89.1253 17.298 88.6386 17.1753L87.7309 16.9468C87.1512 16.8029 86.7238 16.6421 86.4487 16.4644C85.9578 16.1554 85.7124 15.728 85.7124 15.1821C85.7124 14.5389 85.943 14.0184 86.4043 13.6206C86.8698 13.2228 87.494 13.0239 88.2768 13.0239C89.3009 13.0239 90.0394 13.3244 90.4922 13.9253C90.7757 14.3062 90.9132 14.7166 90.9048 15.1567H89.8257C89.8045 14.8986 89.7135 14.6637 89.5527 14.4521C89.2903 14.1517 88.8354 14.0015 88.188 14.0015C87.7563 14.0015 87.4284 14.084 87.2041 14.249C86.984 14.4141 86.874 14.632 86.874 14.9028C86.874 15.1991 87.02 15.436 87.312 15.6138C87.4813 15.7196 87.7309 15.8127 88.061 15.8931L88.8164 16.0771C89.6373 16.276 90.1875 16.4686 90.4668 16.6548C90.9111 16.9468 91.1333 17.4059 91.1333 18.0322C91.1333 18.6374 90.9026 19.16 90.4414 19.6001C89.9844 20.0402 89.2861 20.2603 88.3467 20.2603C87.3353 20.2603 86.618 20.0317 86.1948 19.5747C85.7759 19.1134 85.5516 18.5443 85.5219 17.8672H86.6201Z" fill="white"/>
</g>
</svg>
