<svg width="13" height="16" viewBox="0 0 13 16" fill="none" xmlns="http://www.w3.org/2000/svg">
<path d="M0.395513 2.98511L0.580357 3.02905V4.74292C0.377232 4.8645 0.232143 5.0813 0.232143 5.33618C0.232143 5.58154 0.36635 5.78677 0.554821 5.91479L0.101562 7.73853C0.0507812 7.94067 0.163371 8.14868 0.322969 8.14868H1.53446C1.69406 8.14868 1.80651 7.93994 1.75573 7.76489L1.30232 5.91626C1.49094 5.78735 1.625 5.58228 1.625 5.33618C1.625 5.07983 1.47991 4.86392 1.27679 4.74292V3.20132L2.78571 3.56753L2.78574 5.33618C2.78574 7.40894 4.44702 9.08618 6.50003 9.08618C8.55304 9.08618 10.1882 7.40894 10.1882 5.33618L10.2143 3.56724L12.601 2.98511C13.1306 2.85693 13.1306 2.19409 12.601 2.06226L7.076 0.7146C6.69877 0.626709 6.30355 0.626709 5.92603 0.7146L0.395223 2.06226C-0.13058 2.19058 -0.13058 2.85708 0.395513 2.98511ZM9.49464 9.81274L6.5 12.8362L3.50536 9.81274C1.47614 10.4661 0 12.3674 0 14.6321C0 15.1946 0.450647 15.6487 1.00605 15.6487H11.9951C12.5502 15.6487 13 15.1946 13 14.6321C13 12.3674 11.523 10.4661 9.49464 9.81274Z" fill="#4D44B5"/>
</svg>
