<svg width="15" height="16" viewBox="0 0 15 16" fill="none" xmlns="http://www.w3.org/2000/svg">
<path d="M7.50049 2.29572C4.14043 2.29572 1.40674 5.02064 1.40674 8.36993C1.40674 11.7192 4.14043 14.4442 7.50049 14.4442C10.8605 14.4442 13.5942 11.7192 13.5942 8.36993C13.5942 5.02064 10.8605 2.29572 7.50049 2.29572ZM10.6719 6.33419L6.73437 11.0067C6.69118 11.0579 6.63744 11.0994 6.57678 11.1281C6.51613 11.1569 6.44998 11.1724 6.38281 11.1734H6.3749C6.3092 11.1734 6.24424 11.1596 6.18423 11.1329C6.12422 11.1063 6.0705 11.0673 6.02656 11.0186L4.33906 9.14965C4.29621 9.10434 4.26287 9.05095 4.24101 8.99262C4.21915 8.93428 4.20921 8.87218 4.21177 8.80996C4.21433 8.74774 4.22934 8.68665 4.25593 8.6303C4.28251 8.57395 4.32013 8.52346 4.36656 8.4818C4.413 8.44015 4.46732 8.40816 4.52634 8.38773C4.58535 8.3673 4.64787 8.35884 4.71021 8.36284C4.77256 8.36683 4.83347 8.38321 4.88937 8.41101C4.94528 8.43881 4.99504 8.47747 5.03574 8.52471L6.3626 9.9942L9.9541 5.7332C10.0347 5.64035 10.1486 5.58284 10.2714 5.57309C10.3942 5.56334 10.5158 5.60214 10.6101 5.68109C10.7044 5.76004 10.7638 5.87281 10.7753 5.99502C10.7869 6.11724 10.7497 6.23907 10.6719 6.33419V6.33419Z" fill="#68D391"/>
</svg>
