<svg width="18" height="18" viewBox="0 0 18 18" fill="none" xmlns="http://www.w3.org/2000/svg">
<path d="M15.8045 15.2859L14.8729 9.91406H15.1875C15.4406 9.91406 15.6445 9.71016 15.6445 9.45703V6.08203C15.6445 5.82891 15.4406 5.625 15.1875 5.625H10.8633V2.42578C10.8633 2.17266 10.6594 1.96875 10.4062 1.96875H7.59375C7.34062 1.96875 7.13672 2.17266 7.13672 2.42578V5.625H2.8125C2.55938 5.625 2.35547 5.82891 2.35547 6.08203V9.45703C2.35547 9.71016 2.55938 9.91406 2.8125 9.91406H3.12715L2.19551 15.2859C2.19023 15.3123 2.18848 15.3387 2.18848 15.3633C2.18848 15.6164 2.39238 15.8203 2.64551 15.8203H15.3545C15.3809 15.8203 15.4072 15.8186 15.4318 15.8133C15.6814 15.7711 15.8484 15.5338 15.8045 15.2859ZM3.58594 6.85547H8.36719V3.19922H9.63281V6.85547H14.4141V8.68359H3.58594V6.85547ZM11.8125 14.5898V11.8477C11.8125 11.7703 11.7492 11.707 11.6719 11.707H10.8281C10.7508 11.707 10.6875 11.7703 10.6875 11.8477V14.5898H7.3125V11.8477C7.3125 11.7703 7.24922 11.707 7.17188 11.707H6.32812C6.25078 11.707 6.1875 11.7703 6.1875 11.8477V14.5898H3.56484L4.35762 10.0195H13.6406L14.4334 14.5898H11.8125Z" fill="#718096"/>
</svg>
