<svg width="18" height="18" viewBox="0 0 18 18" fill="none" xmlns="http://www.w3.org/2000/svg">
<path d="M12.3293 1.5395L12.3293 1.53951L15.0605 4.27071L15.0605 4.27072C15.3418 4.55196 15.4999 4.93342 15.5 5.3312C15.5 5.33121 15.5 5.33121 15.5 5.33122V12.2C15.5 12.5978 15.342 12.9794 15.0607 13.2607C14.7794 13.542 14.3978 13.7 14 13.7H12.4H12.3V13.8V15.4C12.3 15.7978 12.142 16.1794 11.8607 16.4607C11.5794 16.742 11.1978 16.9 10.8 16.9H3.6C3.20218 16.9 2.82064 16.742 2.53934 16.4607C2.25804 16.1794 2.1 15.7978 2.1 15.4V5.8C2.1 5.40218 2.25804 5.02064 2.53934 4.73934C2.82064 4.45804 3.20218 4.3 3.6 4.3H5.2H5.3V4.2V2.6C5.3 2.20218 5.45804 1.82064 5.73934 1.53934C6.02064 1.25804 6.40218 1.1 6.8 1.1H11.2688C11.2688 1.1 11.2688 1.1 11.2688 1.1C11.6666 1.10009 12.048 1.25818 12.3293 1.5395ZM14 12.3H14.1V12.2V6.6V6.5H14H11.2C10.9083 6.5 10.6285 6.38411 10.4222 6.17782C10.2159 5.97153 10.1 5.69174 10.1 5.4V2.6V2.5H10H6.8H6.7V2.6V12.2V12.3H6.8H14ZM13.6688 5.1H13.9102L13.7395 4.92929L11.6707 2.86049L11.5 2.68978V2.9312V5V5.1H11.6H13.6688ZM5.3 5.8V5.7H5.2H3.6H3.5V5.8V15.4V15.5H3.6H10.8H10.9V15.4V13.8V13.7H10.8H6.8C6.40218 13.7 6.02065 13.542 5.73934 13.2607C5.45804 12.9794 5.3 12.5978 5.3 12.2V5.8Z" fill="#718096" stroke="white" stroke-width="0.2"/>
</svg>
