<svg width="18" height="19" viewBox="0 0 18 19" fill="none" xmlns="http://www.w3.org/2000/svg">
<path d="M6.32812 3.96167H6.1875C6.26484 3.96167 6.32812 3.89839 6.32812 3.82104V3.96167H11.6719V3.82104C11.6719 3.89839 11.7352 3.96167 11.8125 3.96167H11.6719V5.22729H12.9375V3.82104C12.9375 3.20054 12.433 2.69604 11.8125 2.69604H6.1875C5.56699 2.69604 5.0625 3.20054 5.0625 3.82104V5.22729H6.32812V3.96167ZM15.1875 5.22729H2.8125C2.50137 5.22729 2.25 5.47866 2.25 5.78979V6.35229C2.25 6.42964 2.31328 6.49292 2.39062 6.49292H3.45234L3.88652 15.6863C3.91465 16.2857 4.41035 16.7585 5.00977 16.7585H12.9902C13.5914 16.7585 14.0854 16.2875 14.1135 15.6863L14.5477 6.49292H15.6094C15.6867 6.49292 15.75 6.42964 15.75 6.35229V5.78979C15.75 5.47866 15.4986 5.22729 15.1875 5.22729ZM12.8549 15.4929H5.14512L4.71973 6.49292H13.2803L12.8549 15.4929Z" fill="white"/>
</svg>
