<svg width="10" height="7" viewBox="0 0 10 7" fill="none" xmlns="http://www.w3.org/2000/svg">
<path d="M9.7726 0.969773C9.63195 0.82917 9.44122 0.750183 9.24235 0.750183C9.04347 0.750183 8.85274 0.82917 8.7121 0.969773L4.9996 4.68227L1.2871 0.969773C1.14565 0.833155 0.956194 0.757558 0.759546 0.759267C0.562899 0.760976 0.374789 0.839853 0.235733 0.978909C0.0966769 1.11797 0.0178011 1.30607 0.0160923 1.50272C0.0143835 1.69937 0.0899792 1.88882 0.226598 2.03027L4.46935 6.27302C4.60999 6.41363 4.80072 6.49261 4.9996 6.49261C5.19847 6.49261 5.3892 6.41363 5.52985 6.27302L9.7726 2.03027C9.9132 1.88963 9.99219 1.6989 9.99219 1.50002C9.99219 1.30115 9.9132 1.11042 9.7726 0.969773V0.969773Z" fill="#2D3748"/>
</svg>
