<svg width="12" height="12" viewBox="0 0 12 12" fill="none" xmlns="http://www.w3.org/2000/svg">
<path d="M10.773 3.96974C10.6324 3.82914 10.4416 3.75015 10.2428 3.75015C10.0439 3.75015 9.85317 3.82914 9.71252 3.96974L6.00002 7.68224L2.28753 3.96974C2.14607 3.83312 1.95662 3.75753 1.75997 3.75924C1.56333 3.76095 1.37522 3.83982 1.23616 3.97888C1.0971 4.11793 1.01823 4.30604 1.01652 4.50269C1.01481 4.69934 1.09041 4.88879 1.22703 5.03024L5.46978 9.27299C5.61042 9.4136 5.80115 9.49258 6.00002 9.49258C6.1989 9.49258 6.38963 9.4136 6.53027 9.27299L10.773 5.03024C10.9136 4.8896 10.9926 4.69887 10.9926 4.49999C10.9926 4.30112 10.9136 4.11039 10.773 3.96974Z" fill="#2D3748"/>
</svg>
