<svg width="10" height="10" viewBox="0 0 10 10" fill="none" xmlns="http://www.w3.org/2000/svg">
<path d="M3.30824 1.0225C3.19107 1.1397 3.12524 1.29865 3.12524 1.46437C3.12524 1.6301 3.19107 1.78904 3.30824 1.90625L6.40199 5L3.30824 8.09375C3.19439 8.21163 3.13139 8.3695 3.13281 8.53338C3.13424 8.69725 3.19997 8.85401 3.31585 8.96989C3.43173 9.08577 3.58849 9.1515 3.75236 9.15292C3.91623 9.15434 4.07411 9.09135 4.19199 8.9775L7.72761 5.44187C7.84478 5.32467 7.9106 5.16573 7.9106 5C7.9106 4.83427 7.84478 4.67533 7.72761 4.55812L4.19199 1.0225C4.07478 0.90533 3.91584 0.839508 3.75011 0.839508C3.58438 0.839508 3.42544 0.90533 3.30824 1.0225Z" fill="#2D3748"/>
</svg>
