<svg width="18" height="19" viewBox="0 0 18 19" fill="none" xmlns="http://www.w3.org/2000/svg">
<path d="M5.25 13.487L8.55975 13.4758L15.7837 6.32078C16.0672 6.03728 16.2232 5.66078 16.2232 5.26028C16.2232 4.85978 16.0672 4.48328 15.7837 4.19978L14.5942 3.01028C14.0272 2.44328 13.038 2.44628 12.4755 3.00803L5.25 10.1645V13.487ZM13.5337 4.07078L14.7255 5.25803L13.5278 6.44453L12.3382 5.25578L13.5337 4.07078ZM6.75 10.79L11.2725 6.31028L12.462 7.49978L7.94025 11.978L6.75 11.9818V10.79Z" fill="white"/>
<path d="M3.75 16.4773H14.25C15.0773 16.4773 15.75 15.8045 15.75 14.9773V8.47629L14.25 9.97629V14.9773H6.1185C6.099 14.9773 6.07875 14.9848 6.05925 14.9848C6.0345 14.9848 6.00975 14.978 5.98425 14.9773H3.75V4.47729H8.88525L10.3853 2.97729H3.75C2.92275 2.97729 2.25 3.65004 2.25 4.47729V14.9773C2.25 15.8045 2.92275 16.4773 3.75 16.4773Z" fill="white"/>
</svg>
