<svg width="14" height="14" viewBox="0 0 14 14" fill="none" xmlns="http://www.w3.org/2000/svg">
<path d="M7.44303 12.3826C7.60707 12.2185 7.69922 11.996 7.69922 11.764C7.69922 11.532 7.60707 11.3094 7.44303 11.1454L3.11178 6.81411L7.44303 2.48286C7.60242 2.31783 7.69061 2.0968 7.68862 1.86738C7.68663 1.63796 7.5946 1.4185 7.43237 1.25626C7.27014 1.09403 7.05068 1.00201 6.82126 1.00002C6.59183 0.998023 6.37081 1.08622 6.20578 1.24561L1.25591 6.19548C1.09187 6.35957 0.999717 6.58209 0.999717 6.81411C0.999717 7.04612 1.09187 7.26864 1.25591 7.43273L6.20578 12.3826C6.36987 12.5466 6.59239 12.6388 6.82441 12.6388C7.05642 12.6388 7.27894 12.5466 7.44303 12.3826Z" fill="white"/>
<path d="M12.443 12.3826C12.6071 12.2185 12.6992 11.996 12.6992 11.764C12.6992 11.532 12.6071 11.3094 12.443 11.1454L8.11178 6.81411L12.443 2.48286C12.6024 2.31783 12.6906 2.0968 12.6886 1.86738C12.6866 1.63796 12.5946 1.4185 12.4324 1.25626C12.2701 1.09403 12.0507 1.00201 11.8213 1.00002C11.5918 0.998023 11.3708 1.08622 11.2058 1.24561L6.25591 6.19548C6.09187 6.35957 5.99972 6.58209 5.99972 6.81411C5.99972 7.04612 6.09187 7.26864 6.25591 7.43273L11.2058 12.3826C11.3699 12.5466 11.5924 12.6388 11.8244 12.6388C12.0564 12.6388 12.2789 12.5466 12.443 12.3826Z" fill="white"/>
</svg>
