<svg width="15" height="17" viewBox="0 0 15 17" fill="none" xmlns="http://www.w3.org/2000/svg">
<g clip-path="url(#clip0_1_1393)">
<path d="M7.03662 8.64868C9.246 8.64868 11.0366 6.85806 11.0366 4.64868C11.0366 2.43931 9.246 0.648682 7.03662 0.648682C4.82725 0.648682 3.03662 2.43931 3.03662 4.64868C3.03662 6.85806 4.82725 8.64868 7.03662 8.64868ZM10.0304 9.66743L8.53662 15.6487L7.53662 11.3987L8.53662 9.64868H5.53662L6.53662 11.3987L5.53662 15.6487L4.04287 9.66743C1.81475 9.77368 0.0366211 11.5956 0.0366211 13.8487V15.1487C0.0366211 15.9768 0.708496 16.6487 1.53662 16.6487H12.5366C13.3647 16.6487 14.0366 15.9768 14.0366 15.1487V13.8487C14.0366 11.5956 12.2585 9.77368 10.0304 9.66743Z" fill="#4D44B5"/>
</g>
<defs>
<clipPath id="clip0_1_1393">
<rect width="14" height="16" fill="white" transform="translate(0.0366211 0.648682)"/>
</clipPath>
</defs>
</svg>
