<svg width="18" height="18" viewBox="0 0 18 18" fill="none" xmlns="http://www.w3.org/2000/svg">
<path d="M17.6469 8.48831C16.9407 7.0005 16.1003 5.7871 15.1257 4.84813L14.1036 5.87027C14.9371 6.66681 15.6631 7.70884 16.2909 9.00661C14.6195 12.466 12.2469 14.1093 9.00451 14.1093C8.03125 14.1093 7.1348 13.9594 6.31516 13.6597L5.20764 14.7672C6.34603 15.2929 7.61165 15.5557 9.00451 15.5557C12.8657 15.5557 15.7465 13.5448 17.6469 9.52291C17.7233 9.36116 17.763 9.18449 17.763 9.00561C17.763 8.82672 17.7233 8.65006 17.6469 8.48831ZM16.3698 2.04688L15.5134 1.18947C15.4985 1.17453 15.4808 1.16267 15.4613 1.15458C15.4418 1.1465 15.4209 1.14233 15.3997 1.14233C15.3786 1.14233 15.3577 1.1465 15.3382 1.15458C15.3187 1.16267 15.301 1.17453 15.286 1.18947L13.0889 3.38563C11.8775 2.76688 10.516 2.4575 9.00451 2.4575C5.14335 2.4575 2.26255 4.46844 0.3621 8.49032C0.285711 8.65207 0.246094 8.82873 0.246094 9.00762C0.246094 9.1865 0.285711 9.36316 0.3621 9.52492C1.12134 11.124 2.0354 12.4058 3.10429 13.3702L0.978439 15.4955C0.948322 15.5256 0.931404 15.5665 0.931404 15.6091C0.931404 15.6517 0.948322 15.6925 0.978439 15.7227L1.83605 16.5803C1.86619 16.6104 1.90705 16.6273 1.94966 16.6273C1.99226 16.6273 2.03312 16.6104 2.06326 16.5803L16.3698 2.27429C16.3848 2.25936 16.3966 2.24164 16.4047 2.22213C16.4128 2.20262 16.417 2.18171 16.417 2.16059C16.417 2.13947 16.4128 2.11855 16.4047 2.09904C16.3966 2.07953 16.3848 2.06181 16.3698 2.04688ZM1.71813 9.00661C3.39156 5.54724 5.76411 3.90393 9.00451 3.90393C10.1002 3.90393 11.0964 4.09197 12.0002 4.47427L10.5879 5.88655C9.91911 5.52969 9.15329 5.39724 8.40345 5.50876C7.65361 5.62027 6.95947 5.96984 6.42342 6.50588C5.88738 7.04193 5.53781 7.73607 5.4263 8.48591C5.31479 9.23575 5.44723 10.0016 5.80409 10.6704L4.12824 12.3463C3.20072 11.5276 2.40116 10.4185 1.71813 9.00661ZM6.67415 9.00661C6.67451 8.65237 6.75841 8.3032 6.91906 7.98748C7.07971 7.67175 7.31257 7.39838 7.59873 7.18955C7.88488 6.98073 8.21626 6.84236 8.56594 6.78567C8.91562 6.72898 9.27374 6.75557 9.61121 6.86329L6.78083 9.69367C6.70989 9.47156 6.6739 9.23977 6.67415 9.00661Z" fill="#718096"/>
<path d="M8.91547 11.2513C8.84596 11.2513 8.77746 11.2481 8.70955 11.2418L7.64844 12.303C8.28665 12.5474 8.98201 12.6017 9.65044 12.4593C10.3189 12.317 10.9317 11.9841 11.415 11.5008C11.8982 11.0176 12.2312 10.4047 12.3735 9.73625C12.5159 9.06782 12.4616 8.37247 12.2171 7.73425L11.156 8.79537C11.1623 8.86327 11.1655 8.93178 11.1655 9.00128C11.1656 9.2968 11.1075 9.58946 10.9945 9.86251C10.8815 10.1356 10.7158 10.3837 10.5068 10.5926C10.2978 10.8016 10.0497 10.9673 9.77669 11.0803C9.50364 11.1934 9.21099 11.2514 8.91547 11.2513Z" fill="#718096"/>
</svg>
