<svg width="18" height="18" viewBox="0 0 18 18" fill="none" xmlns="http://www.w3.org/2000/svg">
<path d="M17.8808 8.19715C15.9238 4.07466 12.9656 2 8.99999 2C5.03233 2 2.0762 4.07466 0.119206 8.19921C0.0407101 8.36543 0 8.54696 0 8.73078C0 8.9146 0.0407101 9.09613 0.119206 9.26235C2.0762 13.3848 5.0344 15.4595 8.99999 15.4595C12.9677 15.4595 15.9238 13.3848 17.8808 9.26028C18.0397 8.92586 18.0397 8.53776 17.8808 8.19715ZM8.99999 13.9732C5.67021 13.9732 3.23223 12.2845 1.51264 8.72975C3.23223 5.17495 5.67021 3.48632 8.99999 3.48632C12.3298 3.48632 14.7678 5.17495 16.4874 8.72975C14.7698 12.2845 12.3318 13.9732 8.99999 13.9732ZM8.91742 5.09651C6.91088 5.09651 5.28418 6.72321 5.28418 8.72975C5.28418 10.7363 6.91088 12.363 8.91742 12.363C10.924 12.363 12.5507 10.7363 12.5507 8.72975C12.5507 6.72321 10.924 5.09651 8.91742 5.09651ZM8.91742 11.0418C7.6396 11.0418 6.60536 10.0076 6.60536 8.72975C6.60536 7.45192 7.6396 6.41769 8.91742 6.41769C10.1952 6.41769 11.2295 7.45192 11.2295 8.72975C11.2295 10.0076 10.1952 11.0418 8.91742 11.0418Z" fill="#718096"/>
</svg>
