<svg width="18" height="19" viewBox="0 0 18 19" fill="none" xmlns="http://www.w3.org/2000/svg">
<path d="M17.4038 9.53605C16.7422 7.82472 15.5936 6.34477 14.1001 5.27909C12.6065 4.21342 10.8335 3.60874 9.00001 3.53979C7.16655 3.60874 5.39347 4.21342 3.89993 5.27909C2.40639 6.34477 1.25785 7.82472 0.596255 9.53605C0.551574 9.65963 0.551574 9.79496 0.596255 9.91854C1.25785 11.6299 2.40639 13.1098 3.89993 14.1755C5.39347 15.2412 7.16655 15.8458 9.00001 15.9148C10.8335 15.8458 12.6065 15.2412 14.1001 14.1755C15.5936 13.1098 16.7422 11.6299 17.4038 9.91854C17.4484 9.79496 17.4484 9.65963 17.4038 9.53605ZM9.00001 14.7898C6.01876 14.7898 2.86876 12.5792 1.72688 9.72729C2.86876 6.87542 6.01876 4.66479 9.00001 4.66479C11.9813 4.66479 15.1313 6.87542 16.2731 9.72729C15.1313 12.5792 11.9813 14.7898 9.00001 14.7898Z" fill="white"/>
<path d="M9 6.35229C8.33249 6.35229 7.67997 6.55024 7.12495 6.92109C6.56994 7.29194 6.13735 7.81904 5.88191 8.43574C5.62646 9.05244 5.55963 9.73104 5.68985 10.3857C5.82008 11.0404 6.14151 11.6418 6.61352 12.1138C7.08552 12.5858 7.68689 12.9072 8.34157 13.0374C8.99626 13.1677 9.67486 13.1008 10.2916 12.8454C10.9083 12.5899 11.4354 12.1574 11.8062 11.6023C12.1771 11.0473 12.375 10.3948 12.375 9.72729C12.375 8.83219 12.0194 7.97374 11.3865 7.34081C10.7536 6.70787 9.89511 6.35229 9 6.35229ZM9 11.9773C8.55499 11.9773 8.11998 11.8453 7.74997 11.5981C7.37996 11.3509 7.09157 10.9995 6.92127 10.5883C6.75098 10.1772 6.70642 9.7248 6.79323 9.28834C6.88005 8.85188 7.09434 8.45097 7.40901 8.1363C7.72368 7.82164 8.12459 7.60734 8.56105 7.52053C8.99751 7.43371 9.4499 7.47827 9.86104 7.64857C10.2722 7.81886 10.6236 8.10725 10.8708 8.47726C11.118 8.84727 11.25 9.28229 11.25 9.72729C11.25 10.324 11.0129 10.8963 10.591 11.3183C10.169 11.7402 9.59674 11.9773 9 11.9773Z" fill="white"/>
</svg>
