<svg width="18" height="18" viewBox="0 0 18 18" fill="none" xmlns="http://www.w3.org/2000/svg">
<path d="M15.4135 14.4919L12.2894 11.3679C13.0416 10.3666 13.4476 9.1478 13.4462 7.89549C13.4462 4.6967 10.8438 2.09424 7.645 2.09424C4.44621 2.09424 1.84375 4.6967 1.84375 7.89549C1.84375 11.0943 4.44621 13.6967 7.645 13.6967C8.89731 13.6981 10.1161 13.2921 11.1174 12.5399L14.2415 15.664C14.3996 15.8054 14.6059 15.8808 14.8179 15.8749C15.0299 15.869 15.2316 15.7821 15.3816 15.6321C15.5316 15.4821 15.6185 15.2804 15.6244 15.0684C15.6304 14.8563 15.5549 14.6501 15.4135 14.4919ZM3.50125 7.89549C3.50125 7.07593 3.74428 6.27478 4.1996 5.59334C4.65492 4.91191 5.30208 4.38079 6.05925 4.06716C6.81642 3.75353 7.64959 3.67147 8.4534 3.83136C9.25721 3.99125 9.99556 4.3859 10.5751 4.96541C11.1546 5.54493 11.5492 6.28327 11.7091 7.08708C11.869 7.89089 11.787 8.72406 11.4733 9.48123C11.1597 10.2384 10.6286 10.8856 9.94714 11.3409C9.26571 11.7962 8.46455 12.0392 7.645 12.0392C6.54641 12.0379 5.4932 11.6009 4.71638 10.8241C3.93956 10.0473 3.50257 8.99407 3.50125 7.89549Z" fill="#A0AEC0"/>
</svg>
