<svg width="7" height="10" viewBox="0 0 7 10" fill="none" xmlns="http://www.w3.org/2000/svg">
<path d="M0.849349 5.59998C0.732105 5.48288 0.666162 5.32402 0.666016 5.15832V4.84165C0.667936 4.6763 0.733612 4.51808 0.849349 4.39998L5.13268 0.124981C5.21092 0.0461009 5.31742 0.00173187 5.42852 0.00173187C5.53962 0.00173187 5.64611 0.0461009 5.72435 0.124981L6.31602 0.716648C6.3944 0.793451 6.43858 0.898573 6.43858 1.00831C6.43858 1.11806 6.3944 1.22318 6.31602 1.29998L2.60768 4.99998L6.31602 8.69998C6.3949 8.77822 6.43927 8.88472 6.43927 8.99582C6.43927 9.10692 6.3949 9.21341 6.31602 9.29165L5.72435 9.87498C5.64611 9.95386 5.53962 9.99823 5.42852 9.99823C5.31742 9.99823 5.21092 9.95386 5.13268 9.87498L0.849349 5.59998Z" fill="#4F5C70"/>
</svg>
