<svg width="18" height="19" viewBox="0 0 18 19" fill="none" xmlns="http://www.w3.org/2000/svg">
<path d="M15.4715 12.1912C15.4131 12.1209 15.3558 12.0506 15.2996 11.9827C14.5261 11.0472 14.0582 10.4826 14.0582 7.83428C14.0582 6.46319 13.7302 5.33819 13.0837 4.49444C12.6069 3.87112 11.9625 3.39827 11.1132 3.04881C11.1022 3.04273 11.0925 3.03476 11.0843 3.02526C10.7788 2.00221 9.94281 1.31702 8.99992 1.31702C8.05703 1.31702 7.22136 2.00221 6.91586 3.0242C6.9077 3.03335 6.89808 3.04108 6.88738 3.04705C4.90527 3.86303 3.94199 5.42854 3.94199 7.83322C3.94199 10.4826 3.47476 11.0472 2.70062 11.9817C2.64437 12.0495 2.58707 12.1184 2.52871 12.1901C2.37796 12.3719 2.28245 12.5931 2.25348 12.8275C2.22451 13.0619 2.26329 13.2997 2.36523 13.5127C2.58215 13.9697 3.04445 14.2535 3.57215 14.2535H14.4316C14.9568 14.2535 15.4159 13.9701 15.6335 13.5152C15.7359 13.3021 15.7751 13.0641 15.7464 12.8295C15.7176 12.5948 15.6222 12.3733 15.4715 12.1912Z" fill="#718096"/>
<path d="M8.99994 17.0674C9.50796 17.067 10.0064 16.9291 10.4424 16.6683C10.8784 16.4075 11.2357 16.0336 11.4763 15.5863C11.4877 15.5648 11.4933 15.5408 11.4926 15.5166C11.4919 15.4923 11.485 15.4687 11.4725 15.4479C11.4599 15.4271 11.4422 15.4099 11.4211 15.398C11.4 15.3861 11.3761 15.3799 11.3519 15.3799H6.64869C6.6244 15.3798 6.60051 15.386 6.57934 15.3979C6.55816 15.4098 6.54043 15.427 6.52786 15.4477C6.5153 15.4685 6.50832 15.4922 6.50763 15.5165C6.50693 15.5407 6.51253 15.5648 6.52388 15.5863C6.76454 16.0336 7.12177 16.4075 7.55769 16.6682C7.99361 16.929 8.49198 17.0669 8.99994 17.0674Z" fill="#718096"/>
</svg>
