<svg width="16" height="17" viewBox="0 0 16 17" fill="none" xmlns="http://www.w3.org/2000/svg">
<path d="M13.7523 11.1656C13.7004 11.1031 13.6495 11.0406 13.5995 10.9803C12.912 10.1488 12.496 9.64688 12.496 7.29282C12.496 6.07407 12.2045 5.07407 11.6298 4.32407C11.206 3.77001 10.6332 3.34969 9.8782 3.03907C9.86849 3.03366 9.85981 3.02658 9.85258 3.01813C9.58102 2.10876 8.83789 1.49969 7.99977 1.49969C7.16164 1.49969 6.41883 2.10876 6.14727 3.01719C6.14002 3.02533 6.13146 3.03219 6.12195 3.03751C4.36008 3.76282 3.50383 5.15438 3.50383 7.29188C3.50383 9.64688 3.08852 10.1488 2.40039 10.9794C2.35039 11.0397 2.29945 11.1009 2.24758 11.1647C2.11358 11.3263 2.02868 11.5229 2.00293 11.7312C1.97718 11.9396 2.01165 12.151 2.10227 12.3403C2.29508 12.7466 2.70602 12.9988 3.17508 12.9988H12.8279C13.2948 12.9988 13.7029 12.7469 13.8963 12.3425C13.9873 12.1531 14.0221 11.9416 13.9966 11.733C13.9711 11.5244 13.8863 11.3275 13.7523 11.1656Z" fill="#48BB78"/>
<path d="M7.99962 15.4999C8.45119 15.4996 8.89425 15.377 9.28179 15.1452C9.66934 14.9134 9.98692 14.5811 10.2009 14.1834C10.2109 14.1643 10.2159 14.143 10.2153 14.1214C10.2147 14.0999 10.2085 14.0788 10.1974 14.0604C10.1863 14.0419 10.1706 14.0267 10.1518 14.0161C10.133 14.0055 10.1118 13.9999 10.0902 13.9999H5.90962C5.88803 13.9999 5.8668 14.0054 5.84797 14.0159C5.82915 14.0265 5.81339 14.0418 5.80222 14.0603C5.79105 14.0787 5.78485 14.0998 5.78423 14.1213C5.78361 14.1429 5.78859 14.1643 5.79868 14.1834C6.0126 14.581 6.33013 14.9133 6.71762 15.1451C7.10511 15.3769 7.5481 15.4995 7.99962 15.4999Z" fill="#48BB78"/>
</svg>
