<svg width="7" height="10" viewBox="0 0 7 10" fill="none" xmlns="http://www.w3.org/2000/svg">
<path d="M0.849959 5.59999C0.732716 5.48289 0.666772 5.32403 0.666626 5.15832V4.84166C0.668546 4.67631 0.734223 4.51809 0.849959 4.39999L5.13329 0.124989C5.21153 0.0461085 5.31803 0.0017395 5.42913 0.0017395C5.54023 0.0017395 5.64672 0.0461085 5.72496 0.124989L6.31663 0.716656C6.39501 0.793459 6.43919 0.898581 6.43919 1.00832C6.43919 1.11806 6.39501 1.22319 6.31663 1.29999L2.60829 4.99999L6.31663 8.69999C6.39551 8.77823 6.43988 8.88472 6.43988 8.99582C6.43988 9.10692 6.39551 9.21342 6.31663 9.29166L5.72496 9.87499C5.64672 9.95387 5.54023 9.99824 5.42913 9.99824C5.31803 9.99824 5.21153 9.95387 5.13329 9.87499L0.849959 5.59999Z" fill="#4F5C70"/>
</svg>
