<svg width="7" height="10" viewBox="0 0 7 10" fill="none" xmlns="http://www.w3.org/2000/svg">
<path d="M6.14998 5.59999C6.26722 5.48289 6.33317 5.32403 6.33331 5.15832V4.84166C6.33139 4.67631 6.26572 4.51809 6.14998 4.39999L1.86665 0.124989C1.78841 0.0461085 1.68191 0.0017395 1.57081 0.0017395C1.45971 0.0017395 1.35322 0.0461085 1.27498 0.124989L0.683312 0.716656C0.604926 0.793459 0.560753 0.898581 0.560753 1.00832C0.560753 1.11806 0.604926 1.22319 0.683312 1.29999L4.39165 4.99999L0.683312 8.69999C0.604432 8.77823 0.560063 8.88472 0.560063 8.99582C0.560063 9.10692 0.604432 9.21342 0.683312 9.29166L1.27498 9.87499C1.35322 9.95387 1.45971 9.99824 1.57081 9.99824C1.68191 9.99824 1.78841 9.95387 1.86665 9.87499L6.14998 5.59999Z" fill="#4F5C70"/>
</svg>
