<svg width="18" height="17" viewBox="0 0 18 17" fill="none" xmlns="http://www.w3.org/2000/svg">
<path d="M11.6944 1.46253C11.0103 0.723896 10.0547 0.317139 9.00003 0.317139C7.93972 0.317139 6.98101 0.721435 6.30003 1.4555C5.61167 2.19765 5.27628 3.20628 5.35503 4.29542C5.51113 6.44417 7.14624 8.19214 9.00003 8.19214C10.8538 8.19214 12.4861 6.44452 12.6447 4.29612C12.7245 3.21683 12.387 2.2103 11.6944 1.46253Z" fill="#718096"/>
<path d="M15.1875 16.0663H2.81246C2.65048 16.0684 2.49007 16.0344 2.3429 15.9667C2.19573 15.899 2.06549 15.7993 1.96168 15.675C1.73316 15.4018 1.64105 15.0288 1.70925 14.6516C2.00597 13.0056 2.93199 11.6229 4.38746 10.6522C5.6805 9.79054 7.31843 9.31628 8.99995 9.31628C10.6815 9.31628 12.3194 9.79089 13.6125 10.6522C15.0679 11.6225 15.9939 13.0052 16.2907 14.6512C16.3589 15.0285 16.2667 15.4015 16.0382 15.6746C15.9344 15.7991 15.8042 15.8988 15.6571 15.9665C15.5099 16.0343 15.3495 16.0683 15.1875 16.0663Z" fill="#718096"/>
</svg>
