<svg width="18" height="18" viewBox="0 0 18 18" fill="none" xmlns="http://www.w3.org/2000/svg">
<path d="M9.5625 3.09375C9.5625 2.86997 9.4736 2.65536 9.31537 2.49713C9.15714 2.33889 8.94253 2.25 8.71875 2.25C8.49497 2.25 8.28036 2.33889 8.12213 2.49713C7.96389 2.65536 7.875 2.86997 7.875 3.09375V7.875H3.09375C2.86997 7.875 2.65536 7.96389 2.49713 8.12213C2.33889 8.28036 2.25 8.49497 2.25 8.71875C2.25 8.94253 2.33889 9.15714 2.49713 9.31537C2.65536 9.4736 2.86997 9.5625 3.09375 9.5625H7.875V14.3438C7.875 14.5675 7.96389 14.7821 8.12213 14.9404C8.28036 15.0986 8.49497 15.1875 8.71875 15.1875C8.94253 15.1875 9.15714 15.0986 9.31537 14.9404C9.4736 14.7821 9.5625 14.5675 9.5625 14.3438V9.5625H14.3438C14.5675 9.5625 14.7821 9.4736 14.9404 9.31537C15.0986 9.15714 15.1875 8.94253 15.1875 8.71875C15.1875 8.49497 15.0986 8.28036 14.9404 8.12213C14.7821 7.96389 14.5675 7.875 14.3438 7.875H9.5625V3.09375Z" fill="white"/>
</svg>
