<svg width="19" height="18" viewBox="0 0 19 18" fill="none" xmlns="http://www.w3.org/2000/svg">
<path d="M10.0625 3.09375C10.0625 2.86997 9.9736 2.65536 9.81537 2.49713C9.65714 2.33889 9.44253 2.25 9.21875 2.25C8.99497 2.25 8.78036 2.33889 8.62213 2.49713C8.46389 2.65536 8.375 2.86997 8.375 3.09375V7.875H3.59375C3.36997 7.875 3.15536 7.96389 2.99713 8.12213C2.83889 8.28036 2.75 8.49497 2.75 8.71875C2.75 8.94253 2.83889 9.15714 2.99713 9.31537C3.15536 9.4736 3.36997 9.5625 3.59375 9.5625H8.375V14.3438C8.375 14.5675 8.46389 14.7821 8.62213 14.9404C8.78036 15.0986 8.99497 15.1875 9.21875 15.1875C9.44253 15.1875 9.65714 15.0986 9.81537 14.9404C9.9736 14.7821 10.0625 14.5675 10.0625 14.3438V9.5625H14.8438C15.0675 9.5625 15.2821 9.4736 15.4404 9.31537C15.5986 9.15714 15.6875 8.94253 15.6875 8.71875C15.6875 8.49497 15.5986 8.28036 15.4404 8.12213C15.2821 7.96389 15.0675 7.875 14.8438 7.875H10.0625V3.09375Z" fill="#48BB78"/>
</svg>
