<svg width="17" height="18" viewBox="0 0 17 18" fill="none" xmlns="http://www.w3.org/2000/svg">
<path d="M9.03125 3.27188C9.03125 3.06054 8.94729 2.85785 8.79785 2.70841C8.64841 2.55896 8.44572 2.47501 8.23437 2.47501C8.02303 2.47501 7.82034 2.55896 7.6709 2.70841C7.52146 2.85785 7.4375 3.06054 7.4375 3.27188V7.78751H2.92187C2.71053 7.78751 2.50784 7.87146 2.3584 8.02091C2.20896 8.17035 2.125 8.37304 2.125 8.58438C2.125 8.79573 2.20896 8.99841 2.3584 9.14786C2.50784 9.2973 2.71053 9.38126 2.92187 9.38126H7.4375V13.8969C7.4375 14.1082 7.52146 14.3109 7.6709 14.4604C7.82034 14.6098 8.02303 14.6938 8.23437 14.6938C8.44572 14.6938 8.64841 14.6098 8.79785 14.4604C8.94729 14.3109 9.03125 14.1082 9.03125 13.8969V9.38126H13.5469C13.7582 9.38126 13.9609 9.2973 14.1103 9.14786C14.2598 8.99841 14.3437 8.79573 14.3437 8.58438C14.3437 8.37304 14.2598 8.17035 14.1103 8.02091C13.9609 7.87146 13.7582 7.78751 13.5469 7.78751H9.03125V3.27188Z" fill="#2D3748"/>
</svg>
