<svg width="17" height="18" viewBox="0 0 17 18" fill="none" xmlns="http://www.w3.org/2000/svg">
<path d="M9.03125 3.27185C9.03125 3.06051 8.94729 2.85782 8.79785 2.70837C8.64841 2.55893 8.44572 2.47498 8.23437 2.47498C8.02303 2.47498 7.82034 2.55893 7.6709 2.70837C7.52146 2.85782 7.4375 3.06051 7.4375 3.27185V7.78748H2.92187C2.71053 7.78748 2.50784 7.87143 2.3584 8.02087C2.20896 8.17032 2.125 8.37301 2.125 8.58435C2.125 8.79569 2.20896 8.99838 2.3584 9.14783C2.50784 9.29727 2.71053 9.38123 2.92187 9.38123H7.4375V13.8969C7.4375 14.1082 7.52146 14.3109 7.6709 14.4603C7.82034 14.6098 8.02303 14.6937 8.23437 14.6937C8.44572 14.6937 8.64841 14.6098 8.79785 14.4603C8.94729 14.3109 9.03125 14.1082 9.03125 13.8969V9.38123H13.5469C13.7582 9.38123 13.9609 9.29727 14.1103 9.14783C14.2598 8.99838 14.3437 8.79569 14.3437 8.58435C14.3437 8.37301 14.2598 8.17032 14.1103 8.02087C13.9609 7.87143 13.7582 7.78748 13.5469 7.78748H9.03125V3.27185Z" fill="#2D3748"/>
</svg>
