<svg width="16" height="17" viewBox="0 0 16 17" fill="none" xmlns="http://www.w3.org/2000/svg">
<g clip-path="url(#clip0_1_1386)">
<path d="M9.32469 8.39863C9.34931 8.39866 9.3734 8.3914 9.39391 8.37779C9.41443 8.36417 9.43047 8.3448 9.44002 8.3221C9.44957 8.2994 9.4522 8.27438 9.44758 8.25019C9.44296 8.22601 9.4313 8.20372 9.41406 8.18613L6.96406 5.69488C6.94665 5.6772 6.92437 5.66511 6.90006 5.66013C6.87576 5.65516 6.85052 5.65753 6.82756 5.66695C6.8046 5.67636 6.78497 5.6924 6.77116 5.71301C6.75734 5.73363 6.74998 5.75788 6.75 5.7827V8.02363C6.75 8.12309 6.78951 8.21847 6.85984 8.2888C6.93016 8.35912 7.02554 8.39863 7.125 8.39863H9.32469Z" fill="#4D44B5"/>
<path d="M6.15625 8.99238C6.02789 8.86575 5.92591 8.71494 5.85618 8.54867C5.78645 8.38239 5.75036 8.20394 5.75 8.02363V5.14863H3.5C2.97005 5.1502 2.46225 5.36142 2.08752 5.73615C1.71278 6.11089 1.50157 6.61868 1.5 7.14863V14.1486C1.5 14.6791 1.71071 15.1878 2.08579 15.5628C2.46086 15.9379 2.96957 16.1486 3.5 16.1486H8C8.53043 16.1486 9.03914 15.9379 9.41421 15.5628C9.78929 15.1878 10 14.6791 10 14.1486V9.39863H7.125C6.94468 9.39838 6.7662 9.36234 6.59991 9.2926C6.43362 9.22287 6.28282 9.12082 6.15625 8.99238ZM11.625 4.39863H13.8247C13.8493 4.39866 13.8734 4.3914 13.8939 4.37779C13.9144 4.36417 13.9305 4.34479 13.94 4.3221C13.9496 4.2994 13.9522 4.27438 13.9476 4.25019C13.943 4.22601 13.9313 4.20372 13.9141 4.18613L11.4641 1.69488C11.4467 1.6772 11.4244 1.66511 11.4001 1.66013C11.3758 1.65516 11.3505 1.65753 11.3276 1.66695C11.3046 1.67636 11.285 1.6924 11.2712 1.71301C11.2573 1.73363 11.25 1.75788 11.25 1.7827V4.02363C11.25 4.12309 11.2895 4.21847 11.3598 4.2888C11.4302 4.35913 11.5255 4.39863 11.625 4.39863Z" fill="#4D44B5"/>
<path d="M11.625 5.39868C11.2612 5.3959 10.9131 5.25014 10.6558 4.99288C10.3985 4.73562 10.2528 4.3875 10.25 4.02368V1.14868H6.875C6.3779 1.14926 5.90132 1.34699 5.54981 1.6985C5.19831 2.05 5.00058 2.52658 5 3.02368V4.14868H6.31625C6.48426 4.14935 6.65047 4.18321 6.80535 4.24832C6.96023 4.31343 7.10072 4.40849 7.21875 4.52806L10.63 7.99681C10.868 8.23828 11.0009 8.56403 10.9997 8.90306V13.1487H12.6575C13.6734 13.1487 14.4997 12.3074 14.4997 11.2737V5.39868H11.625Z" fill="#4D44B5"/>
</g>
<defs>
<clipPath id="clip0_1_1386">
<rect width="16" height="16" fill="white" transform="translate(0 0.648682)"/>
</clipPath>
</defs>
</svg>
