<svg width="14" height="14" viewBox="0 0 14 14" fill="none" xmlns="http://www.w3.org/2000/svg">
<path d="M4.63143 1.4315C4.4674 1.59558 4.37524 1.8181 4.37524 2.05012C4.37524 2.28214 4.4674 2.50466 4.63143 2.66875L8.96268 7L4.63143 11.3312C4.47204 11.4963 4.38385 11.7173 4.38584 11.9467C4.38784 12.1761 4.47986 12.3956 4.64209 12.5578C4.80432 12.7201 5.02378 12.8121 5.25321 12.8141C5.48263 12.8161 5.70366 12.7279 5.86868 12.5685L10.8186 7.61862C10.9826 7.45453 11.0747 7.23201 11.0747 7C11.0747 6.76798 10.9826 6.54546 10.8186 6.38137L5.86868 1.4315C5.7046 1.26746 5.48208 1.17531 5.25006 1.17531C5.01804 1.17531 4.79552 1.26746 4.63143 1.4315Z" fill="#2D3748"/>
</svg>
