<svg width="18" height="17" viewBox="0 0 18 17" fill="none" xmlns="http://www.w3.org/2000/svg">
<g clip-path="url(#clip0_433_18093)">
<path d="M4.7513 13.4583C4.7513 14.2375 5.3888 14.875 6.16797 14.875H11.8346C12.6138 14.875 13.2513 14.2375 13.2513 13.4583V6.375C13.2513 5.59583 12.6138 4.95833 11.8346 4.95833H6.16797C5.3888 4.95833 4.7513 5.59583 4.7513 6.375V13.4583ZM13.2513 2.83333H11.4805L10.9776 2.33042C10.8501 2.20292 10.6659 2.125 10.4817 2.125H7.52089C7.33672 2.125 7.15255 2.20292 7.02505 2.33042L6.52214 2.83333H4.7513C4.36172 2.83333 4.04297 3.15208 4.04297 3.54167C4.04297 3.93125 4.36172 4.25 4.7513 4.25H13.2513C13.6409 4.25 13.9596 3.93125 13.9596 3.54167C13.9596 3.15208 13.6409 2.83333 13.2513 2.83333Z" fill="#E53E3E"/>
</g>
<defs>
<clipPath id="clip0_433_18093">
<rect width="17" height="17" fill="white" transform="translate(0.501953)"/>
</clipPath>
</defs>
</svg>
