<svg width="17" height="17" viewBox="0 0 17 17" fill="none" xmlns="http://www.w3.org/2000/svg">
<path d="M14.5342 15.4696C14.4446 15.4709 14.3564 15.4483 14.2785 15.4044C14.2007 15.3604 14.136 15.2967 14.0913 15.2196C13.421 14.0852 12.4656 13.1431 11.3187 12.4858C10.1719 11.8284 8.87278 11.4783 7.54874 11.4696V14.4696C7.54824 14.5683 7.51835 14.6647 7.46282 14.7465C7.40729 14.8284 7.32862 14.8921 7.23671 14.9296C7.14506 14.9679 7.04404 14.9784 6.94641 14.9597C6.84878 14.941 6.75891 14.894 6.68814 14.8246L0.648867 8.82461C0.601696 8.77813 0.564256 8.72283 0.538705 8.6619C0.513155 8.60097 0.5 8.53562 0.5 8.46961C0.5 8.40361 0.513155 8.33825 0.538705 8.27732C0.564256 8.21639 0.601696 8.16109 0.648867 8.11461L6.68814 2.11461C6.75891 2.04523 6.84878 1.99824 6.94641 1.97955C7.04404 1.96086 7.14506 1.97132 7.23671 2.00961C7.32862 2.04712 7.40729 2.11082 7.46282 2.19268C7.51835 2.27454 7.54824 2.3709 7.54874 2.46961V5.52461C9.63087 5.79031 11.5447 6.79909 12.9336 8.36294C14.3226 9.9268 15.0917 11.939 15.0978 14.0246C15.0966 14.359 15.0748 14.6929 15.0324 15.0246C15.0198 15.1286 14.9747 15.2261 14.9034 15.3033C14.832 15.3804 14.7381 15.4334 14.6348 15.4546L14.5342 15.4696ZM7.2971 10.4696C8.58065 10.4513 9.8529 10.7101 11.0259 11.228C12.199 11.746 13.2449 12.5108 14.0913 13.4696C13.9399 11.6558 13.1429 9.95493 11.8434 8.6721C10.5439 7.38927 8.82679 6.60842 7.00017 6.46961C6.87469 6.45835 6.75803 6.40074 6.67324 6.30816C6.58844 6.21559 6.54168 6.09478 6.54219 5.96961V3.67461L1.71581 8.46961L6.54219 13.2646V10.9696C6.54219 10.837 6.59521 10.7098 6.6896 10.6161C6.78398 10.5223 6.91199 10.4696 7.04546 10.4696H7.31723H7.2971Z" fill="#2D3748"/>
</svg>
