<svg width="15" height="16" viewBox="0 0 15 16" fill="none" xmlns="http://www.w3.org/2000/svg">
<g clip-path="url(#clip0_1_1402)">
<path d="M3.04687 15.1803H2.10937C1.92289 15.1803 1.74405 15.1062 1.61219 14.9744C1.48033 14.8425 1.40625 14.6637 1.40625 14.4772V10.2584C1.40625 10.0719 1.48033 9.8931 1.61219 9.76124C1.74405 9.62938 1.92289 9.5553 2.10937 9.5553H3.04687C3.23335 9.5553 3.4122 9.62938 3.54406 9.76124C3.67592 9.8931 3.75 10.0719 3.75 10.2584V14.4772C3.75 14.6637 3.67592 14.8425 3.54406 14.9744C3.4122 15.1062 3.23335 15.1803 3.04687 15.1803V15.1803Z" fill="#4D44B5"/>
<path d="M9.60937 15.1795H8.67187C8.48539 15.1795 8.30655 15.1054 8.17469 14.9736C8.04283 14.8417 7.96875 14.6629 7.96875 14.4764V7.44513C7.96875 7.25865 8.04283 7.07981 8.17469 6.94794C8.30655 6.81608 8.48539 6.742 8.67187 6.742H9.60937C9.79585 6.742 9.9747 6.81608 10.1066 6.94794C10.2384 7.07981 10.3125 7.25865 10.3125 7.44513V14.4764C10.3125 14.6629 10.2384 14.8417 10.1066 14.9736C9.9747 15.1054 9.79585 15.1795 9.60937 15.1795V15.1795Z" fill="#4D44B5"/>
<path d="M12.8906 15.1798H11.9531C11.7666 15.1798 11.5878 15.1057 11.4559 14.9739C11.3241 14.842 11.25 14.6632 11.25 14.4767V4.16418C11.25 3.9777 11.3241 3.79886 11.4559 3.667C11.5878 3.53514 11.7666 3.46106 11.9531 3.46106H12.8906C13.0771 3.46106 13.2559 3.53514 13.3878 3.667C13.5197 3.79886 13.5937 3.9777 13.5937 4.16418V14.4767C13.5937 14.6632 13.5197 14.842 13.3878 14.9739C13.2559 15.1057 13.0771 15.1798 12.8906 15.1798V15.1798Z" fill="#4D44B5"/>
<path d="M6.32812 15.1797H5.39062C5.20414 15.1797 5.0253 15.1056 4.89344 14.9737C4.76158 14.8419 4.6875 14.663 4.6875 14.4766V1.82031C4.6875 1.63383 4.76158 1.45499 4.89344 1.32313C5.0253 1.19127 5.20414 1.11719 5.39062 1.11719H6.32812C6.5146 1.11719 6.69345 1.19127 6.82531 1.32313C6.95717 1.45499 7.03125 1.63383 7.03125 1.82031V14.4766C7.03125 14.663 6.95717 14.8419 6.82531 14.9737C6.69345 15.1056 6.5146 15.1797 6.32812 15.1797V15.1797Z" fill="#4D44B5"/>
</g>
<defs>
<clipPath id="clip0_1_1402">
<rect width="15" height="15" fill="white" transform="translate(0 0.648682)"/>
</clipPath>
</defs>
</svg>
