<svg width="16" height="16" viewBox="0 0 16 16" fill="none" xmlns="http://www.w3.org/2000/svg">
<g clip-path="url(#clip0_993_22122)">
<path d="M7.47115 8.86683L5.37387 6.76876L5.37386 6.76874C5.32473 6.71961 5.2664 6.68064 5.2022 6.65405C5.13801 6.62746 5.0692 6.61377 4.99972 6.61377C4.93024 6.61377 4.86143 6.62746 4.79724 6.65405C4.73304 6.68064 4.67471 6.71961 4.62558 6.76874C4.57645 6.81788 4.53747 6.8762 4.51088 6.9404C4.48429 7.00459 4.47061 7.0734 4.47061 7.14288C4.47061 7.21237 4.48429 7.28117 4.51088 7.34537C4.53747 7.40956 4.57645 7.46789 4.62558 7.51702L7.62549 10.5169L7.47115 8.86683ZM7.47115 8.86683V2.85717C7.47115 2.37599 7.6623 1.91452 8.00254 1.57428C8.34279 1.23403 8.80426 1.04288 9.28543 1.04288H13.1426C13.6238 1.04288 14.0852 1.23403 14.4255 1.57428C14.7657 1.91452 14.9569 2.37599 14.9569 2.85717V13.1429C14.9569 13.6241 14.7657 14.0855 14.4255 14.4258C14.0852 14.766 13.6238 14.9572 13.1426 14.9572H2.85686C2.37569 14.9572 1.91421 14.766 1.57397 14.4258C1.23373 14.0855 1.04258 13.6241 1.04258 13.1429V2.85717C1.04258 2.37599 1.23373 1.91452 1.57397 1.57428C1.91421 1.23403 2.37569 1.04288 2.85686 1.04288H4.99972C5.13991 1.04288 5.27435 1.09857 5.37348 1.1977C5.4726 1.29682 5.52829 1.43127 5.52829 1.57145C5.52829 1.71164 5.4726 1.84608 5.37348 1.94521C5.27435 2.04434 5.13991 2.10003 4.99972 2.10003H2.85686C2.65606 2.10003 2.46347 2.1798 2.32148 2.32179C2.17949 2.46378 2.09972 2.65636 2.09972 2.85717V13.1429C2.09972 13.3437 2.17949 13.5363 2.32148 13.6783C2.46347 13.8203 2.65606 13.9 2.85686 13.9H13.1426C13.3434 13.9 13.536 13.8203 13.678 13.6783C13.82 13.5363 13.8997 13.3437 13.8997 13.1429V2.85717C13.8997 2.65636 13.82 2.46378 13.678 2.32179C13.536 2.1798 13.3434 2.10003 13.1426 2.10003H9.28543C9.08463 2.10003 8.89205 2.1798 8.75005 2.32179C8.60806 2.46378 8.52829 2.65636 8.52829 2.85717V8.86683L10.6256 6.76876L10.6256 6.76874C10.7248 6.66952 10.8594 6.61377 10.9997 6.61377C11.14 6.61377 11.2746 6.66952 11.3739 6.76874C11.4731 6.86797 11.5288 7.00255 11.5288 7.14288C11.5288 7.28321 11.4731 7.41779 11.3739 7.51702L8.37395 10.5169L7.47115 8.86683ZM8.2023 10.6319C8.26648 10.6052 8.32478 10.5662 8.37386 10.517H7.62558C7.67466 10.5662 7.73296 10.6052 7.79714 10.6319C7.86135 10.6585 7.93019 10.6722 7.99972 10.6722C8.06925 10.6722 8.13809 10.6585 8.2023 10.6319Z" fill="#718096" stroke="#718096" stroke-width="0.2"/>
</g>
<defs>
<clipPath id="clip0_993_22122">
<rect width="16" height="16" fill="white"/>
</clipPath>
</defs>
</svg>
