<svg width="14" height="15" viewBox="0 0 14 15" fill="none" xmlns="http://www.w3.org/2000/svg">
<g clip-path="url(#clip0_365_15911)">
<g clip-path="url(#clip1_365_15911)">
<path d="M13.6633 12.992L10.5392 9.86789C11.2913 8.8666 11.6974 7.64782 11.696 6.39551C11.696 3.19672 9.09354 0.594261 5.89475 0.594261C2.69597 0.594261 0.0935059 3.19672 0.0935059 6.39551C0.0935059 9.5943 2.69597 12.1968 5.89475 12.1968C7.14707 12.1981 8.36584 11.7921 9.36713 11.04L12.4912 14.164C12.6494 14.3054 12.8556 14.3809 13.0676 14.3749C13.2797 14.369 13.4814 14.2821 13.6314 14.1321C13.7814 13.9821 13.8682 13.7804 13.8742 13.5684C13.8801 13.3564 13.8046 13.1501 13.6633 12.992ZM1.75101 6.39551C1.75101 5.57595 1.99403 4.7748 2.44935 4.09337C2.90467 3.41193 3.55184 2.88082 4.30901 2.56718C5.06618 2.25355 5.89935 2.17149 6.70316 2.33138C7.50697 2.49127 8.24531 2.88592 8.82483 3.46544C9.40434 4.04495 9.79899 4.7833 9.95888 5.5871C10.1188 6.39091 10.0367 7.22408 9.72308 7.98125C9.40945 8.73842 8.87833 9.38559 8.1969 9.84091C7.51546 10.2962 6.71431 10.5393 5.89475 10.5393C4.79617 10.5379 3.74295 10.1009 2.96614 9.32413C2.18932 8.54731 1.75232 7.49409 1.75101 6.39551Z" fill="#A0AEC0"/>
</g>
</g>
<defs>
<clipPath id="clip0_365_15911">
<rect width="14" height="15" fill="white"/>
</clipPath>
<clipPath id="clip1_365_15911">
<rect width="14" height="15" fill="white"/>
</clipPath>
</defs>
</svg>
