<svg width="18" height="18" viewBox="0 0 18 18" fill="none" xmlns="http://www.w3.org/2000/svg">
<path d="M8.99932 6.18774C8.44306 6.18774 7.89929 6.35269 7.43678 6.66174C6.97426 6.97078 6.61378 7.41003 6.40091 7.92395C6.18803 8.43786 6.13234 9.00336 6.24086 9.54893C6.34938 10.0945 6.61724 10.5956 7.01058 10.989C7.40391 11.3823 7.90505 11.6502 8.45062 11.7587C8.9962 11.8672 9.5617 11.8115 10.0756 11.5987C10.5895 11.3858 11.0288 11.0253 11.3378 10.5628C11.6469 10.1003 11.8118 9.5565 11.8118 9.00024C11.8096 8.25501 11.5126 7.54093 10.9856 7.01396C10.4586 6.487 9.74455 6.18997 8.99932 6.18774ZM15.0715 9.00024C15.07 9.26304 15.0508 9.52544 15.0138 9.78563L16.7256 11.1258C16.8002 11.1873 16.8504 11.2734 16.8673 11.3686C16.8843 11.4638 16.8668 11.5619 16.8181 11.6454L15.1988 14.441C15.1495 14.5238 15.0727 14.5865 14.9818 14.6182C14.8909 14.6499 14.7917 14.6486 14.7017 14.6143L12.689 13.8058C12.2699 14.1285 11.8112 14.3963 11.3242 14.6027L11.0233 16.7395C11.0064 16.8353 10.9569 16.9221 10.8831 16.9854C10.8092 17.0486 10.7158 17.0842 10.6186 17.0862H7.38002C7.28462 17.0843 7.19267 17.0502 7.11918 16.9893C7.04569 16.9285 6.99499 16.8445 6.97537 16.7511L6.67443 14.6143C6.18607 14.4103 5.7271 14.142 5.30967 13.8166L3.29697 14.6252C3.207 14.6595 3.10784 14.6609 3.01692 14.6293C2.926 14.5976 2.84914 14.535 2.79986 14.4523L1.18057 11.657C1.13183 11.5735 1.11436 11.4754 1.1313 11.3802C1.14824 11.285 1.19848 11.199 1.27303 11.1374L2.98479 9.79724C2.94828 9.53311 2.92902 9.26688 2.92713 9.00024C2.92859 8.73744 2.94786 8.47505 2.98479 8.21485L1.27303 6.8747C1.19848 6.81314 1.14824 6.72707 1.1313 6.63188C1.11436 6.5367 1.13183 6.43859 1.18057 6.35509L2.79986 3.55946C2.84909 3.4767 2.92592 3.41395 3.01685 3.38225C3.10777 3.35055 3.20696 3.35193 3.29697 3.38614L5.30967 4.19474C5.72877 3.87201 6.18741 3.60417 6.67443 3.39774L6.97537 1.26095C6.99221 1.16523 7.04177 1.07834 7.11558 1.01512C7.18938 0.95189 7.28286 0.916257 7.38002 0.914307H10.6186C10.714 0.916163 10.806 0.950304 10.8795 1.01115C10.9529 1.072 11.0036 1.15597 11.0233 1.24935L11.3242 3.38614C11.8132 3.59004 12.2727 3.85831 12.6907 4.18384L14.7017 3.37524C14.7916 3.341 14.8908 3.33957 14.9817 3.3712C15.0726 3.40284 15.1495 3.46552 15.1988 3.54821L16.8181 6.34384C16.8668 6.42734 16.8843 6.52545 16.8673 6.62064C16.8504 6.71582 16.8002 6.80189 16.7256 6.86345L15.0138 8.2036C15.0503 8.46762 15.0696 8.73373 15.0715 9.00024Z" fill="#718096"/>
</svg>
