<svg width="16" height="16" viewBox="0 0 16 16" fill="none" xmlns="http://www.w3.org/2000/svg">
<path d="M14.6528 4.03142C14.619 3.96577 14.5703 3.90902 14.5104 3.8658C14.4506 3.82257 14.3814 3.79409 14.3085 3.78267C14.2355 3.77124 14.1609 3.77721 14.0908 3.80007C14.0206 3.82293 13.9568 3.86205 13.9046 3.91423L12.1046 5.7154C12.0162 5.80248 11.8971 5.8513 11.7731 5.8513C11.649 5.8513 11.5299 5.80248 11.4416 5.7154L10.6634 4.93611C10.6199 4.89258 10.5854 4.8409 10.5618 4.78402C10.5382 4.72714 10.5261 4.66618 10.5261 4.60461C10.5261 4.54305 10.5382 4.48208 10.5618 4.4252C10.5854 4.36833 10.6199 4.31665 10.6634 4.27312L12.4558 2.48044C12.5096 2.42672 12.5494 2.36074 12.572 2.28818C12.5946 2.21563 12.5992 2.13868 12.5854 2.06395C12.5716 1.98923 12.5399 1.91898 12.4929 1.85924C12.4459 1.79951 12.3852 1.75209 12.3158 1.72107V1.72107C10.962 1.11579 9.27214 1.43161 8.20661 2.48923C7.30134 3.38806 7.03152 4.79255 7.46687 6.34265C7.49034 6.42531 7.49048 6.51286 7.46726 6.59559C7.44404 6.67832 7.39838 6.75302 7.33533 6.8114L2.45798 11.266C2.26798 11.4366 2.11472 11.6441 2.00755 11.8759C1.90038 12.1077 1.84156 12.3588 1.83467 12.6141C1.82778 12.8694 1.87296 13.1234 1.96746 13.3606C2.06196 13.5978 2.2038 13.8133 2.38432 13.9939C2.56485 14.1745 2.78027 14.3164 3.01746 14.4111C3.25464 14.5057 3.50861 14.551 3.76388 14.5442C4.01914 14.5374 4.27035 14.4787 4.50218 14.3716C4.73401 14.2646 4.9416 14.1114 5.11228 13.9215L9.61462 9.03327C9.67216 8.97103 9.74559 8.92567 9.82701 8.90208C9.90842 8.87849 9.99473 8.87756 10.0766 8.89939C10.5179 9.0203 10.9732 9.08304 11.4307 9.08601C12.4092 9.08601 13.2679 8.76931 13.8873 8.15905C15.0342 7.02907 15.2092 5.11247 14.6528 4.03142ZM3.81121 13.6007C3.61826 13.6217 3.42353 13.5824 3.25389 13.488C3.08425 13.3937 2.94808 13.2491 2.86415 13.0741C2.78022 12.899 2.75269 12.7023 2.78534 12.511C2.81799 12.3196 2.90923 12.1432 3.04645 12.0059C3.18367 11.8686 3.36012 11.7773 3.55143 11.7446C3.74275 11.7119 3.93951 11.7394 4.11455 11.8232C4.28959 11.9071 4.43429 12.0432 4.52867 12.2128C4.62306 12.3824 4.66247 12.5771 4.64148 12.7701C4.61838 12.9824 4.52349 13.1805 4.37251 13.3315C4.22153 13.4825 4.0235 13.5775 3.81121 13.6007V13.6007Z" fill="#4D44B5"/>
</svg>
