<svg width="22" height="22" viewBox="0 0 22 22" fill="none" xmlns="http://www.w3.org/2000/svg">
<path d="M12.3748 9.63696H18.3904C18.4329 9.63696 18.4736 9.65383 18.5036 9.68387C18.5337 9.7139 18.5505 9.75464 18.5505 9.79712V17.8752C18.5505 18.6015 18.262 19.298 17.7485 19.8115C17.235 20.325 16.5385 20.6135 15.8123 20.6135H6.18726C5.46102 20.6135 4.76453 20.325 4.251 19.8115C3.73747 19.298 3.44897 18.6015 3.44897 17.8752V4.12524C3.44897 3.39901 3.73747 2.70251 4.251 2.18899C4.76453 1.67546 5.46102 1.38696 6.18726 1.38696H10.1404C10.1829 1.38696 10.2236 1.40384 10.2536 1.43387C10.2837 1.46391 10.3005 1.50464 10.3005 1.54712V7.56274C10.3005 8.11286 10.5191 8.64045 10.9081 9.02944C11.2971 9.41843 11.8246 9.63696 12.3748 9.63696ZM7.56226 16.512H14.4373C14.6227 16.512 14.8005 16.4383 14.9317 16.3072C15.0628 16.176 15.1365 15.9982 15.1365 15.8127C15.1365 15.6273 15.0628 15.4494 14.9317 15.3183C14.8005 15.1872 14.6227 15.1135 14.4373 15.1135H7.56226C7.37681 15.1135 7.19896 15.1872 7.06783 15.3183C6.9367 15.4494 6.86304 15.6273 6.86304 15.8127C6.86304 15.9982 6.9367 16.176 7.06783 16.3072C7.19896 16.4383 7.37681 16.512 7.56226 16.512ZM7.56226 13.0745H14.4373C14.6227 13.0745 14.8005 13.0008 14.9317 12.8697C15.0628 12.7385 15.1365 12.5607 15.1365 12.3752C15.1365 12.1898 15.0628 12.0119 14.9317 11.8808C14.8005 11.7497 14.6227 11.676 14.4373 11.676H7.56226C7.37681 11.676 7.19896 11.7497 7.06783 11.8808C6.9367 12.0119 6.86304 12.1898 6.86304 12.3752C6.86304 12.5607 6.9367 12.7385 7.06783 12.8697C7.19896 13.0008 7.37681 13.0745 7.56226 13.0745Z" fill="white" stroke="#4D44B5" stroke-width="0.0234375"/>
<path d="M11.8253 1.93369L18.0046 8.11298C18.0149 8.12336 18.0219 8.13655 18.0247 8.15091C18.0276 8.16527 18.0261 8.18014 18.0205 8.19366C18.0149 8.20719 18.0055 8.21876 17.9933 8.22692C17.9812 8.23507 17.9669 8.23946 17.9522 8.23952H12.3745C12.1953 8.23952 12.0234 8.16832 11.8967 8.04159C11.7699 7.91486 11.6987 7.74297 11.6987 7.56374V1.98599C11.6988 1.97137 11.7032 1.95709 11.7113 1.94495C11.7195 1.9328 11.7311 1.92333 11.7446 1.91774C11.7581 1.91215 11.773 1.91068 11.7873 1.91352C11.8017 1.91636 11.8149 1.92337 11.8253 1.93368C11.8253 1.93368 11.8253 1.93369 11.8253 1.93369Z" fill="white" stroke="#4D44B5" stroke-width="0.0234375"/>
</svg>
