<svg width="22" height="22" viewBox="0 0 22 22" fill="none" xmlns="http://www.w3.org/2000/svg">
<path d="M12.8212 10.6563C12.8551 10.6563 12.8882 10.6463 12.9164 10.6276C12.9446 10.6089 12.9667 10.5822 12.9798 10.551C12.9929 10.5198 12.9965 10.4854 12.9902 10.4522C12.9838 10.4189 12.9678 10.3883 12.9441 10.3641L9.57534 6.9386C9.5514 6.9143 9.52077 6.89766 9.48734 6.89082C9.45392 6.88398 9.41921 6.88724 9.38765 6.90019C9.35608 6.91314 9.32909 6.93519 9.3101 6.96353C9.2911 6.99187 9.28098 7.02523 9.28101 7.05935V10.1406C9.28101 10.2774 9.33533 10.4085 9.43203 10.5052C9.52873 10.6019 9.65988 10.6563 9.79663 10.6563H12.8212Z" fill="#F8F9FA"/>
<path d="M8.4646 11.4727C8.28811 11.2986 8.14788 11.0912 8.052 10.8626C7.95612 10.6339 7.9065 10.3886 7.90601 10.1406V6.18751H4.81226C4.08357 6.18966 3.38535 6.48009 2.87009 6.99535C2.35483 7.51061 2.06441 8.20883 2.06226 8.93751V18.5625C2.06226 19.2919 2.35199 19.9913 2.86771 20.5071C3.38344 21.0228 4.08291 21.3125 4.81226 21.3125H10.9998C11.7291 21.3125 12.4286 21.0228 12.9443 20.5071C13.46 19.9913 13.7498 19.2919 13.7498 18.5625V12.0313H9.79663C9.54869 12.0309 9.30328 11.9814 9.07463 11.8855C8.84598 11.7896 8.63863 11.6493 8.4646 11.4727V11.4727ZM15.9841 5.15626H19.0087C19.0426 5.15629 19.0757 5.14632 19.1039 5.12759C19.1321 5.10887 19.1542 5.08223 19.1673 5.05102C19.1804 5.01981 19.184 4.98542 19.1777 4.95216C19.1713 4.9189 19.1553 4.88825 19.1316 4.86407L15.7628 1.4386C15.7389 1.4143 15.7083 1.39766 15.6748 1.39082C15.6414 1.38398 15.6067 1.38724 15.5752 1.40019C15.5436 1.41314 15.5166 1.43519 15.4976 1.46353C15.4786 1.49187 15.4685 1.52523 15.4685 1.55935V4.64064C15.4685 4.77739 15.5228 4.90854 15.6195 5.00524C15.7162 5.10194 15.8474 5.15626 15.9841 5.15626Z" fill="#F8F9FA"/>
<path d="M15.9841 6.53125C15.4839 6.52743 15.0052 6.32701 14.6515 5.97328C14.2977 5.61954 14.0973 5.14087 14.0935 4.64062V0.6875H9.45288C8.76936 0.688296 8.11407 0.960175 7.63075 1.44349C7.14743 1.92681 6.87555 2.58211 6.87476 3.26562V4.8125H8.6846C8.91561 4.81342 9.14416 4.85998 9.35712 4.9495C9.57008 5.03902 9.76325 5.16974 9.92554 5.33414L14.616 10.1037C14.9432 10.4357 15.1259 10.8836 15.1243 11.3498V17.1875H17.4038C18.8007 17.1875 19.9368 16.0308 19.9368 14.6094V6.53125H15.9841Z" fill="#F8F9FA"/>
</svg>
