<svg width="10" height="14" viewBox="0 0 10 14" fill="none" xmlns="http://www.w3.org/2000/svg">
<g clip-path="url(#clip0_377_20722)">
<path d="M0.227402 5.53026C0.368048 5.67086 0.558779 5.74985 0.757652 5.74985C0.956525 5.74985 1.14726 5.67086 1.2879 5.53026L5.0004 1.81776L8.7129 5.53026C8.85435 5.66688 9.04381 5.74247 9.24045 5.74076C9.4371 5.73905 9.62521 5.66018 9.76427 5.52112C9.90332 5.38207 9.9822 5.19396 9.98391 4.99731C9.98562 4.80066 9.91002 4.61121 9.7734 4.46976L5.53065 0.227007C5.39001 0.0864036 5.19928 0.00741698 5.0004 0.00741698C4.80153 0.00741698 4.6108 0.0864036 4.47015 0.227007L0.227402 4.46976C0.0867991 4.6104 0.0078125 4.80113 0.0078125 5.00001C0.0078125 5.19888 0.0867991 5.38961 0.227402 5.53026V5.53026Z" fill="#2D3748"/>
<path d="M9.7726 8.46974C9.63195 8.32914 9.44122 8.25015 9.24235 8.25015C9.04347 8.25015 8.85274 8.32914 8.7121 8.46974L4.9996 12.1822L1.2871 8.46974C1.14565 8.33312 0.956194 8.25753 0.759546 8.25924C0.562899 8.26095 0.374789 8.33982 0.235733 8.47888C0.0966769 8.61793 0.0178011 8.80604 0.0160923 9.00269C0.0143835 9.19934 0.0899792 9.38879 0.226598 9.53024L4.46935 13.773C4.60999 13.9136 4.80072 13.9926 4.9996 13.9926C5.19847 13.9926 5.3892 13.9136 5.52985 13.773L9.7726 9.53024C9.9132 9.3896 9.99219 9.19887 9.99219 8.99999C9.99219 8.80112 9.9132 8.61039 9.7726 8.46974V8.46974Z" fill="#2D3748"/>
</g>
<defs>
<clipPath id="clip0_377_20722">
<rect width="14" height="10" fill="white" transform="translate(0 14) rotate(-90)"/>
</clipPath>
</defs>
</svg>
