<svg width="24" height="24" viewBox="0 0 24 24" fill="none" xmlns="http://www.w3.org/2000/svg">
<path d="M4.50228 16.011L11.9993 8.70297L19.4963 16.011C19.6302 16.1418 19.81 16.2151 19.9973 16.2151C20.1845 16.2151 20.3643 16.1418 20.4983 16.011C20.5631 15.9474 20.6147 15.8716 20.6498 15.7879C20.685 15.7042 20.7031 15.6143 20.7031 15.5235C20.7031 15.4327 20.685 15.3428 20.6498 15.2591C20.6147 15.1754 20.5631 15.0995 20.4983 15.036L12.5228 7.25997C12.3827 7.12345 12.1949 7.04705 11.9993 7.04705C11.8037 7.04705 11.6158 7.12345 11.4758 7.25997L3.50027 15.0345C3.43496 15.0981 3.38305 15.1741 3.3476 15.2581C3.31215 15.3421 3.29389 15.4323 3.29389 15.5235C3.29389 15.6146 3.31215 15.7049 3.3476 15.7889C3.38305 15.8728 3.43496 15.9489 3.50027 16.0125C3.63422 16.1433 3.81404 16.2166 4.00128 16.2166C4.18852 16.2166 4.36833 16.1433 4.50228 16.0125V16.011Z" fill="#718096"/>
</svg>
