<svg width="22" height="22" viewBox="0 0 22 22" fill="none" xmlns="http://www.w3.org/2000/svg">
<path d="M18.333 7.33337H3.66634V5.50004H18.333V7.33337ZM16.4997 1.83337H5.49967V3.66671H16.4997V1.83337ZM20.1663 11V18.3334C20.1663 18.8196 19.9732 19.2859 19.6294 19.6297C19.2856 19.9736 18.8192 20.1667 18.333 20.1667H3.66634C3.18056 20.1653 2.71508 19.9716 2.37158 19.6281C2.02808 19.2846 1.83446 18.8192 1.83301 18.3334V11C1.83446 10.5143 2.02808 10.0488 2.37158 9.70528C2.71508 9.36178 3.18056 9.16816 3.66634 9.16671H18.333C18.8188 9.16816 19.2843 9.36178 19.6278 9.70528C19.9713 10.0488 20.1649 10.5143 20.1663 11ZM12.7661 15.6219L14.8955 13.8014L12.0914 13.5667L10.9997 11L9.90792 13.5667L7.10384 13.8014L9.23326 15.6219L8.59159 18.3334L10.9997 16.8924L13.4078 18.3334L12.7661 15.6219Z" fill="white"/>
</svg>
